<svg width="54" height="49" viewBox="0 0 54 49" fill="none" xmlns="http://www.w3.org/2000/svg">
<path d="M29.0392 3.02073C31.7467 1.09602 34.8875 0.133661 38.4343 0.133661C40.3837 0.133661 42.5227 0.641571 44.8511 1.71086C47.1796 2.75341 49.0207 3.98309 50.3745 5.39989C53.1632 8.8216 54.3275 12.8047 53.9213 17.3492C53.4881 21.8936 51.9719 25.449 49.3456 27.9618L28.7955 48.2515C28.2811 48.7594 27.6313 49 26.8732 49C26.1151 49 25.4924 48.7594 24.9779 48.2515C24.7279 48.0079 24.5315 47.716 24.401 47.394C24.2706 47.072 24.2089 46.7269 24.2198 46.3802C24.2198 45.6318 24.4635 44.9902 24.9779 44.4823L37.4055 32.2122C38.0823 31.6241 38.0823 31.0093 37.4055 30.341C36.7286 29.6727 36.1059 29.6727 35.5102 30.341L23.0827 42.611C22.8321 42.8602 22.5319 43.0554 22.201 43.1843C21.8701 43.3131 21.5158 43.3728 21.1603 43.3595C20.4022 43.3595 19.7795 43.1189 19.2651 42.611C19.015 42.3675 18.8186 42.0755 18.6881 41.7535C18.5577 41.4315 18.496 41.0864 18.507 40.7398C18.507 39.9913 18.7506 39.3497 19.2651 38.8418L31.6926 26.5717C32.4236 25.9034 32.4236 25.2351 31.6926 24.5668C31.0699 23.8985 30.4742 23.8985 29.7973 24.5668L17.3698 36.9705C17.1164 37.2159 16.8157 37.4086 16.4855 37.5371C16.1553 37.6657 15.8023 37.7276 15.4475 37.719C14.6894 37.719 14.0396 37.4785 13.471 36.9705C12.9295 36.4626 12.6587 35.8478 12.6587 35.0993C12.6587 34.3508 12.9565 33.6825 13.5522 33.0944L26.0068 20.7976C26.6837 20.1293 26.6837 19.5145 26.0068 18.9264C25.3299 18.3382 24.6801 18.3382 24.0845 18.9264L11.5216 31.2499C10.9259 31.7845 10.3032 32.0786 9.62629 32.0786C8.86819 32.0786 8.21838 31.8112 7.73103 31.2499C7.2166 30.7152 6.94585 30.0736 6.94585 29.3251C6.94585 28.5766 7.2166 27.9618 7.73103 27.4539C16.016 19.2204 21.1333 14.2482 23.0827 12.4037L32.7215 21.8134C33.7774 22.8025 34.9958 23.3104 36.4849 23.3104C38.3802 23.3104 39.8693 22.5619 40.9794 21.0649C41.7375 19.9689 42.0082 18.766 41.7916 17.4293C41.575 16.0927 41.0065 14.97 40.0859 14.0344L29.0392 3.02073ZM34.6167 19.9422L23.0827 8.52755L3.91342 27.4539C1.63911 25.1817 0.339495 21.7065 0.0416673 16.9749C-0.25616 12.27 1.04345 8.18003 3.91342 4.75832C7.13537 1.60393 10.9801 0 15.4475 0C19.9419 0 23.7596 1.60393 26.8732 4.75832L38.4343 16.1729C38.9487 16.6808 39.1924 17.2957 39.1924 18.0442C39.1924 18.7927 38.9487 19.4343 38.4343 19.9422C37.9199 20.4234 37.2972 20.6907 36.4849 20.6907C35.7539 20.6907 35.1311 20.4234 34.6167 19.9422Z" fill="white"/>
</svg>
